<mxfile host="app.diagrams.net" agent="Mozilla/5.0 (Macintosh; Intel Mac OS X 10_15_7) AppleWebKit/537.36 (KHTML, like Gecko) Chrome/138.0.0.0 Safari/537.36" version="28.0.7">
  <diagram name="Page-1" id="eiXcGKEhw6aIwi1FyG1M">
    <mxGraphModel dx="976" dy="578" grid="1" gridSize="10" guides="1" tooltips="1" connect="1" arrows="1" fold="1" page="1" pageScale="1" pageWidth="850" pageHeight="1100" math="0" shadow="0">
      <root>
        <mxCell id="0" />
        <mxCell id="1" parent="0" />
        <mxCell id="8UMouCQB8mZXVUz6AP7R-1" value="Web/Mobile Client" style="rounded=1;whiteSpace=wrap;html=1;" vertex="1" parent="1">
          <mxGeometry x="365" y="30" width="120" height="60" as="geometry" />
        </mxCell>
        <mxCell id="8UMouCQB8mZXVUz6AP7R-10" style="edgeStyle=orthogonalEdgeStyle;rounded=0;orthogonalLoop=1;jettySize=auto;html=1;exitX=0.5;exitY=1;exitDx=0;exitDy=0;entryX=0.5;entryY=0;entryDx=0;entryDy=0;" edge="1" parent="1" source="8UMouCQB8mZXVUz6AP7R-2" target="8UMouCQB8mZXVUz6AP7R-5">
          <mxGeometry relative="1" as="geometry" />
        </mxCell>
        <mxCell id="8UMouCQB8mZXVUz6AP7R-13" style="edgeStyle=orthogonalEdgeStyle;rounded=0;orthogonalLoop=1;jettySize=auto;html=1;exitX=0.5;exitY=1;exitDx=0;exitDy=0;entryX=0.5;entryY=0;entryDx=0;entryDy=0;" edge="1" parent="1" source="8UMouCQB8mZXVUz6AP7R-2" target="8UMouCQB8mZXVUz6AP7R-6">
          <mxGeometry relative="1" as="geometry" />
        </mxCell>
        <mxCell id="8UMouCQB8mZXVUz6AP7R-2" value="API Layer&lt;br&gt;Golang" style="rounded=1;whiteSpace=wrap;html=1;" vertex="1" parent="1">
          <mxGeometry x="365" y="140" width="120" height="60" as="geometry" />
        </mxCell>
        <mxCell id="8UMouCQB8mZXVUz6AP7R-3" value="Redis ACL" style="rounded=1;whiteSpace=wrap;html=1;" vertex="1" parent="1">
          <mxGeometry x="130" y="390" width="120" height="60" as="geometry" />
        </mxCell>
        <mxCell id="8UMouCQB8mZXVUz6AP7R-16" style="edgeStyle=orthogonalEdgeStyle;rounded=0;orthogonalLoop=1;jettySize=auto;html=1;exitX=0.5;exitY=1;exitDx=0;exitDy=0;" edge="1" parent="1" source="8UMouCQB8mZXVUz6AP7R-4" target="8UMouCQB8mZXVUz6AP7R-8">
          <mxGeometry relative="1" as="geometry" />
        </mxCell>
        <mxCell id="8UMouCQB8mZXVUz6AP7R-4" value="Redis Stream&lt;br&gt;(Vote Logs)" style="rounded=1;whiteSpace=wrap;html=1;" vertex="1" parent="1">
          <mxGeometry x="600" y="270" width="120" height="60" as="geometry" />
        </mxCell>
        <mxCell id="8UMouCQB8mZXVUz6AP7R-14" style="edgeStyle=orthogonalEdgeStyle;rounded=0;orthogonalLoop=1;jettySize=auto;html=1;exitX=0.5;exitY=1;exitDx=0;exitDy=0;entryX=0.5;entryY=0;entryDx=0;entryDy=0;" edge="1" parent="1" source="8UMouCQB8mZXVUz6AP7R-5" target="8UMouCQB8mZXVUz6AP7R-7">
          <mxGeometry relative="1" as="geometry" />
        </mxCell>
        <mxCell id="8UMouCQB8mZXVUz6AP7R-5" value="Redis Sorted Set&lt;br&gt;(Vote Count)" style="rounded=1;whiteSpace=wrap;html=1;" vertex="1" parent="1">
          <mxGeometry x="365" y="270" width="120" height="60" as="geometry" />
        </mxCell>
        <mxCell id="8UMouCQB8mZXVUz6AP7R-15" style="edgeStyle=orthogonalEdgeStyle;rounded=0;orthogonalLoop=1;jettySize=auto;html=1;exitX=0.5;exitY=1;exitDx=0;exitDy=0;entryX=0.5;entryY=0;entryDx=0;entryDy=0;" edge="1" parent="1" source="8UMouCQB8mZXVUz6AP7R-6" target="8UMouCQB8mZXVUz6AP7R-3">
          <mxGeometry relative="1" as="geometry" />
        </mxCell>
        <mxCell id="8UMouCQB8mZXVUz6AP7R-6" value="Redis Hash&lt;br&gt;(Auth User)" style="rounded=1;whiteSpace=wrap;html=1;" vertex="1" parent="1">
          <mxGeometry x="130" y="270" width="120" height="60" as="geometry" />
        </mxCell>
        <mxCell id="8UMouCQB8mZXVUz6AP7R-18" style="edgeStyle=orthogonalEdgeStyle;rounded=0;orthogonalLoop=1;jettySize=auto;html=1;exitX=0.5;exitY=1;exitDx=0;exitDy=0;entryX=0.5;entryY=0;entryDx=0;entryDy=0;" edge="1" parent="1" source="8UMouCQB8mZXVUz6AP7R-7" target="8UMouCQB8mZXVUz6AP7R-17">
          <mxGeometry relative="1" as="geometry" />
        </mxCell>
        <mxCell id="8UMouCQB8mZXVUz6AP7R-7" value="Redis Pub/Sub&lt;br&gt;(Live Updates)" style="rounded=1;whiteSpace=wrap;html=1;" vertex="1" parent="1">
          <mxGeometry x="365" y="390" width="120" height="60" as="geometry" />
        </mxCell>
        <mxCell id="8UMouCQB8mZXVUz6AP7R-8" value="Analytics Engine&lt;br&gt;(AI)" style="rounded=1;whiteSpace=wrap;html=1;" vertex="1" parent="1">
          <mxGeometry x="600" y="390" width="120" height="60" as="geometry" />
        </mxCell>
        <mxCell id="8UMouCQB8mZXVUz6AP7R-9" value="" style="endArrow=classic;html=1;rounded=0;exitX=0.5;exitY=1;exitDx=0;exitDy=0;entryX=0.5;entryY=0;entryDx=0;entryDy=0;" edge="1" parent="1" source="8UMouCQB8mZXVUz6AP7R-1" target="8UMouCQB8mZXVUz6AP7R-2">
          <mxGeometry width="50" height="50" relative="1" as="geometry">
            <mxPoint x="400" y="320" as="sourcePoint" />
            <mxPoint x="450" y="270" as="targetPoint" />
          </mxGeometry>
        </mxCell>
        <mxCell id="8UMouCQB8mZXVUz6AP7R-12" style="edgeStyle=orthogonalEdgeStyle;rounded=0;orthogonalLoop=1;jettySize=auto;html=1;exitX=0.5;exitY=1;exitDx=0;exitDy=0;entryX=0.5;entryY=0;entryDx=0;entryDy=0;" edge="1" parent="1" source="8UMouCQB8mZXVUz6AP7R-2" target="8UMouCQB8mZXVUz6AP7R-4">
          <mxGeometry relative="1" as="geometry" />
        </mxCell>
        <mxCell id="8UMouCQB8mZXVUz6AP7R-17" value="Frontend UI Live Feed" style="rounded=1;whiteSpace=wrap;html=1;" vertex="1" parent="1">
          <mxGeometry x="365" y="510" width="120" height="60" as="geometry" />
        </mxCell>
        <mxCell id="8UMouCQB8mZXVUz6AP7R-19" value="HTTP/WebSocket" style="text;whiteSpace=wrap;" vertex="1" parent="1">
          <mxGeometry x="440" y="100" width="130" height="40" as="geometry" />
        </mxCell>
      </root>
    </mxGraphModel>
  </diagram>
</mxfile>
